<!DOCTYPE svg PUBLIC "-//W3C//DTD SVG 20010904//EN" "http://www.w3.org/TR/2001/REC-SVG-20010904/DTD/svg10.dtd">
<svg version="1.0" xmlns="http://www.w3.org/2000/svg" width="1200px" height="275px" viewBox="0 0 12000 2750" preserveAspectRatio="xMidYMid meet">
<g id="layer101" fill="#e50c14" stroke="none">
 <path d="M10 2722 c0 -10 39 -262 80 -522 11 -69 31 -197 45 -285 14 -88 35 -216 46 -285 11 -69 29 -181 40 -250 11 -69 31 -192 44 -275 13 -82 35 -220 49 -305 14 -85 41 -254 61 -375 19 -121 40 -249 46 -285 5 -36 12 -75 15 -87 l4 -23 310 0 c171 0 310 3 310 7 0 12 230 1372 326 1927 52 303 93 555 90 562 -2 6 -35 14 -73 18 -72 7 -180 21 -277 36 -33 5 -61 9 -62 7 -1 -1 -16 -94 -34 -207 -17 -113 -35 -214 -39 -225 -10 -25 2 -25 -440 24 -46 6 -85 11 -86 13 -2 2 -20 109 -39 237 -19 129 -40 239 -45 244 -6 6 -37 14 -68 18 -32 4 -89 12 -128 18 -130 21 -175 24 -175 13z m735 -908 c99 -9 182 -18 184 -20 3 -3 -65 -473 -89 -609 -4 -27 -13 -84 -20 -125 -6 -41 -22 -147 -35 -235 -14 -88 -30 -194 -36 -235 -19 -135 -25 -126 -59 95 -5 36 -14 94 -20 130 -5 36 -14 94 -20 130 -5 36 -14 93 -20 127 -5 35 -17 113 -26 173 -9 61 -19 135 -24 165 -5 30 -18 118 -30 195 -37 247 -36 225 -9 225 13 0 105 -7 204 -16z"/>
 <path d="M11889 2726 c-4 -4 -92 -18 -234 -37 -92 -12 -103 -16 -110 -42 -67 -232 -334 -1047 -344 -1047 -4 0 -69 177 -145 393 -76 215 -154 435 -173 487 l-34 96 -62 -7 c-132 -15 -254 -31 -288 -37 l-36 -7 49 -130 c140 -367 335 -884 375 -994 l45 -124 -52 -146 c-122 -344 -204 -572 -294 -820 -53 -145 -96 -267 -96 -272 0 -5 96 -9 214 -9 l215 0 160 483 c88 265 163 481 167 480 8 -2 10 -6 192 -548 l138 -410 192 -3 c106 -1 192 1 192 6 0 5 -9 35 -21 68 -11 32 -47 136 -79 229 -78 227 -204 590 -279 803 l-61 173 235 702 c129 386 235 705 235 709 0 8 -93 11 -101 4z"/>
 <path d="M9985 2480 c-33 -5 -108 -14 -166 -20 l-106 -13 -7 -120 c-3 -66 -6 -610 -6 -1209 l0 -1088 210 0 210 0 0 1230 0 1230 -37 -1 c-21 -1 -65 -5 -98 -9z"/>
 <path d="M2153 2459 c-180 -30 -300 -136 -356 -314 -22 -70 -22 -72 -22 -865 l0 -795 23 -80 c59 -204 194 -332 402 -380 109 -25 319 -23 422 4 193 50 313 153 376 321 29 81 45 232 36 361 l-7 109 -81 0 c-44 0 -131 3 -192 7 l-112 6 -3 -174 c-4 -170 -5 -175 -33 -222 -37 -64 -103 -97 -193 -97 -94 0 -159 34 -196 103 l-22 42 -3 745 c-2 665 -1 750 13 787 46 119 209 149 339 64 76 -50 94 -127 95 -402 l1 -136 30 -7 c17 -3 105 -9 196 -12 l166 -7 -4 229 c-5 204 -7 236 -27 294 -41 117 -64 154 -140 230 -80 79 -172 132 -281 163 -117 34 -312 45 -427 26z"/>
 <path d="M9295 2414 c-84 -10 -307 -27 -639 -49 -203 -14 -372 -28 -375 -31 -3 -3 -7 -523 -9 -1155 l-3 -1149 211 0 210 0 0 1000 0 1000 26 10 c14 6 58 10 97 10 69 0 394 22 525 36 l62 6 0 164 0 164 -37 -1 c-21 -1 -51 -4 -68 -5z"/>
 <path d="M3310 2351 c0 -17 42 -244 105 -576 29 -152 297 -1582 321 -1713 l6 -32 311 2 311 3 8 40 c4 22 16 90 28 150 12 61 25 133 30 160 24 136 299 1587 341 1799 10 55 16 103 12 107 -5 4 -100 9 -213 10 l-205 1 -34 -201 -35 -201 -121 0 c-103 0 -405 17 -411 23 -1 1 -19 94 -38 207 -20 112 -38 205 -39 207 -2 1 -68 7 -148 13 -79 5 -163 12 -186 14 -35 3 -43 0 -43 -13z m921 -757 c3 -2 -5 -65 -18 -141 -13 -76 -39 -230 -59 -343 -33 -196 -48 -282 -94 -542 -11 -64 -20 -121 -20 -127 0 -6 -4 -11 -9 -11 -5 0 -12 19 -16 43 -4 23 -24 141 -46 262 -79 448 -149 857 -149 867 0 9 395 2 411 -8z"/>
 <path d="M7010 2288 c-101 -5 -185 -10 -186 -11 -1 -1 -5 -507 -9 -1124 l-8 -1123 567 0 567 0 -3 158 -3 157 -353 3 -352 2 2 343 3 342 270 8 c148 4 270 9 272 10 1 2 3 72 3 157 l2 155 -79 0 c-43 0 -166 -2 -273 -5 l-195 -5 0 470 c0 463 0 470 -20 471 -11 1 -103 -3 -205 -8z"/>
 <path d="M5120 1154 l0 -1125 423 4 c462 4 485 7 613 68 133 63 217 173 249 327 21 99 21 1345 0 1444 -32 153 -113 261 -242 325 -133 66 -274 82 -710 83 l-333 0 0 -1126z m776 784 c43 -23 81 -71 94 -116 14 -53 14 -1293 -1 -1347 -16 -57 -73 -108 -138 -123 -29 -7 -111 -12 -182 -12 l-129 0 0 811 0 811 163 -4 c127 -3 169 -7 193 -20z"/>
 </g>

</svg>