<?xml version="1.0" encoding="UTF-8" standalone="no"?>
<svg
   xmlns:dc="http://purl.org/dc/elements/1.1/"
   xmlns:cc="http://creativecommons.org/ns#"
   xmlns:rdf="http://www.w3.org/1999/02/22-rdf-syntax-ns#"
   xmlns:svg="http://www.w3.org/2000/svg"
   xmlns="http://www.w3.org/2000/svg"
   xmlns:sodipodi="http://sodipodi.sourceforge.net/DTD/sodipodi-0.dtd"
   xmlns:inkscape="http://www.inkscape.org/namespaces/inkscape"
   inkscape:version="1.0 (4035a4f, 2020-05-01)"
   sodipodi:docname="fwd.svg"
   version="1.1"
   viewBox="0 0 28 28"
   id="nfplayerFastForward">
  <metadata
     id="metadata1430">
    <rdf:RDF>
      <cc:Work
         rdf:about="">
        <dc:format>image/svg+xml</dc:format>
        <dc:type
           rdf:resource="http://purl.org/dc/dcmitype/StillImage" />
      </cc:Work>
    </rdf:RDF>
  </metadata>
  <defs
     id="defs1428" />
  <sodipodi:namedview
     inkscape:current-layer="nfplayerFastForward"
     inkscape:window-maximized="0"
     inkscape:window-y="23"
     inkscape:window-x="0"
     inkscape:cy="9.7938742"
     inkscape:cx="11.651266"
     inkscape:zoom="6.6142964"
     showgrid="false"
     id="namedview1426"
     inkscape:window-height="480"
     inkscape:window-width="776"
     inkscape:pageshadow="2"
     inkscape:pageopacity="0"
     guidetolerance="10"
     gridtolerance="10"
     objecttolerance="10"
     borderopacity="1"
     bordercolor="#666666"
     pagecolor="#ffffff" />
  <g
     id="g1423"
     fill="none"
     stroke-width="1"
     stroke="none">
    <g
       id="g1417"
       transform="translate(14.000000, 13.000000) scale(-1, 1) translate(-14.000000, -13.000000) translate(4.000000, 1.000000)">
      <path
         transform="translate(10.000000, 14.000000) scale(-1, 1) translate(-10.000000, -14.000000) "
         id="path1438"
         d="M 10 3 C 3.9367124 3 -1 7.9367124 -1 14 C -1 20.063288 3.9367124 25 10 25 C 16.063288 25 21 20.063288 21 14 C 21 11.52753 20.180242 9.2346668 18.798828 7.3964844 L 17.199219 8.5996094 C 18.33034 10.10474 19 11.968288 19 14 C 19 18.982407 14.982407 23 10 23 C 5.0175926 23 1 18.982407 1 14 C 1 9.0175926 5.0175926 5 10 5 L 12 5 L 12 3 L 10 3 z "
         style="color:#000000;font-style:normal;font-variant:normal;font-weight:normal;font-stretch:normal;font-size:medium;line-height:normal;font-family:sans-serif;font-variant-ligatures:normal;font-variant-position:normal;font-variant-caps:normal;font-variant-numeric:normal;font-variant-alternates:normal;font-variant-east-asian:normal;font-feature-settings:normal;font-variation-settings:normal;text-indent:0;text-align:start;text-decoration:none;text-decoration-line:none;text-decoration-style:solid;text-decoration-color:#000000;letter-spacing:normal;word-spacing:normal;text-transform:none;writing-mode:lr-tb;direction:ltr;text-orientation:mixed;dominant-baseline:auto;baseline-shift:baseline;text-anchor:start;white-space:normal;shape-padding:0;shape-margin:0;inline-size:0;clip-rule:nonzero;display:inline;overflow:visible;visibility:visible;isolation:auto;mix-blend-mode:normal;color-interpolation:sRGB;color-interpolation-filters:linearRGB;solid-color:#000000;solid-opacity:1;vector-effect:none;fill:#000000;fill-opacity:1;fill-rule:nonzero;stroke:none;stroke-width:2;stroke-linecap:butt;stroke-linejoin:miter;stroke-miterlimit:4;stroke-dasharray:none;stroke-dashoffset:0;stroke-opacity:1;color-rendering:auto;image-rendering:auto;shape-rendering:auto;text-rendering:auto;enable-background:accumulate;stop-color:#000000;stop-opacity:1;opacity:1" />
      <path
         id="path1448"
         d="M 10.800781 -0.21484375 L 6.5859375 3.9121094 L 10.785156 8.1992188 L 12.214844 6.8007812 L 9.4140625 3.9414062 L 12.199219 1.2148438 L 10.800781 -0.21484375 z "
         style="color:#000000;font-style:normal;font-variant:normal;font-weight:normal;font-stretch:normal;font-size:medium;line-height:normal;font-family:sans-serif;font-variant-ligatures:normal;font-variant-position:normal;font-variant-caps:normal;font-variant-numeric:normal;font-variant-alternates:normal;font-variant-east-asian:normal;font-feature-settings:normal;font-variation-settings:normal;text-indent:0;text-align:start;text-decoration:none;text-decoration-line:none;text-decoration-style:solid;text-decoration-color:#000000;letter-spacing:normal;word-spacing:normal;text-transform:none;writing-mode:lr-tb;direction:ltr;text-orientation:mixed;dominant-baseline:auto;baseline-shift:baseline;text-anchor:start;white-space:normal;shape-padding:0;shape-margin:0;inline-size:0;clip-rule:nonzero;display:inline;overflow:visible;visibility:visible;isolation:auto;mix-blend-mode:normal;color-interpolation:sRGB;color-interpolation-filters:linearRGB;solid-color:#000000;solid-opacity:1;vector-effect:none;fill:#000000;fill-opacity:1;fill-rule:nonzero;stroke:none;stroke-width:2;stroke-linecap:butt;stroke-linejoin:miter;stroke-miterlimit:4;stroke-dasharray:none;stroke-dashoffset:0;stroke-opacity:1;color-rendering:auto;image-rendering:auto;shape-rendering:auto;text-rendering:auto;enable-background:accumulate;stop-color:#000000;stop-opacity:1;opacity:1" />
      <path
         id="path1453"
         d="M 6.2929688 -0.20703125 L 2.0859375 4 L 6.2929688 8.2070312 L 7.7070312 6.7929688 L 4.9140625 4 L 7.7070312 1.2070312 L 6.2929688 -0.20703125 z "
         style="color:#000000;font-style:normal;font-variant:normal;font-weight:normal;font-stretch:normal;font-size:medium;line-height:normal;font-family:sans-serif;font-variant-ligatures:normal;font-variant-position:normal;font-variant-caps:normal;font-variant-numeric:normal;font-variant-alternates:normal;font-variant-east-asian:normal;font-feature-settings:normal;font-variation-settings:normal;text-indent:0;text-align:start;text-decoration:none;text-decoration-line:none;text-decoration-style:solid;text-decoration-color:#000000;letter-spacing:normal;word-spacing:normal;text-transform:none;writing-mode:lr-tb;direction:ltr;text-orientation:mixed;dominant-baseline:auto;baseline-shift:baseline;text-anchor:start;white-space:normal;shape-padding:0;shape-margin:0;inline-size:0;clip-rule:nonzero;display:inline;overflow:visible;visibility:visible;isolation:auto;mix-blend-mode:normal;color-interpolation:sRGB;color-interpolation-filters:linearRGB;solid-color:#000000;solid-opacity:1;vector-effect:none;fill:#000000;fill-opacity:1;fill-rule:nonzero;stroke:none;stroke-width:2;stroke-linecap:butt;stroke-linejoin:miter;stroke-miterlimit:4;stroke-dasharray:none;stroke-dashoffset:0;stroke-opacity:1;color-rendering:auto;image-rendering:auto;shape-rendering:auto;text-rendering:auto;enable-background:accumulate;stop-color:#000000;stop-opacity:1;opacity:1" />
    </g>
    <g
       style="font-weight:400;font-size:10px;letter-spacing:-0.3;fill:#ffffff"
       id="text1421"
       aria-label="10">
      <path
         style="fill:#000000"
         sodipodi:nodetypes="ccccccccccccccc"
         id="path1440"
         d="M 12.292969,19 H 8.3574219 V 18.257812 H 9.8710938 V 13.384766 H 8.3574219 v -0.664063 c 0.2050781,0 0.4248047,-0.01628 0.6591797,-0.04883 0.234375,-0.03581 0.4117838,-0.08626 0.5322265,-0.151367 0.1497396,-0.08138 0.2669271,-0.183919 0.3515625,-0.307617 0.087891,-0.126953 0.1383464,-0.296224 0.1513674,-0.507813 h 0.756836 v 6.552734 h 1.484375 z" />
      <path
         style="fill:#000000"
         sodipodi:nodetypes="scscscscsscscccscccssccssss"
         id="path1442"
         d="m 18.765429,15.362305 c 0,1.305338 -0.205078,2.263997 -0.615234,2.875976 -0.406901,0.608724 -1.040039,0.913086 -1.899414,0.913086 -0.872396,0 -1.510417,-0.309245 -1.914062,-0.927734 -0.400391,-0.61849 -0.600586,-1.569011 -0.600586,-2.851563 0,-1.292317 0.20345,-2.246093 0.610351,-2.861328 0.406901,-0.618489 1.041667,-0.927734 1.904297,-0.927734 0.872396,0 1.508789,0.314128 1.90918,0.942383 0.403645,0.625 0.605468,1.570638 0.605468,2.836914 z m -1.284179,2.216797 c 0.113932,-0.263672 0.190429,-0.572917 0.229492,-0.927735 0.04232,-0.358073 0.06348,-0.78776 0.06348,-1.289062 0,-0.494792 -0.02116,-0.92448 -0.06348,-1.289063 -0.03906,-0.364583 -0.117185,-0.673828 -0.234375,-0.927734 -0.113932,-0.250651 -0.270182,-0.439453 -0.46875,-0.566406 -0.195313,-0.126953 -0.447591,-0.19043 -0.756836,-0.19043 -0.305989,0 -0.559896,0.06348 -0.761719,0.19043 -0.198567,0.126953 -0.356445,0.31901 -0.473633,0.576171 -0.110677,0.240886 -0.187174,0.555014 -0.229492,0.942383 -0.03906,0.38737 -0.05859,0.812175 -0.05859,1.274414 0,0.507813 0.0179,0.932617 0.05371,1.274414 0.03581,0.341797 0.112304,0.647787 0.229493,0.917969 0.107421,0.253906 0.258788,0.447591 0.454101,0.581055 0.198568,0.133463 0.460612,0.200195 0.786133,0.200195 0.305989,0 0.559896,-0.06348 0.761719,-0.19043 0.201823,-0.126953 0.358073,-0.31901 0.46875,-0.576171 z" />
    </g>
  </g>
</svg>
