<!DOCTYPE svg PUBLIC "-//W3C//DTD SVG 20010904//EN" "http://www.w3.org/TR/2001/REC-SVG-20010904/DTD/svg10.dtd">
<svg version="1.0" xmlns="http://www.w3.org/2000/svg" width="1200px" height="288px" viewBox="0 0 12000 2880" preserveAspectRatio="xMidYMid meet">
<g id="layer101" fill="#e50914" stroke="none">
 <path d="M11915 2788 c-44 -4 -129 -15 -190 -23 -60 -8 -126 -15 -146 -15 l-37 0 -25 -72 c-14 -40 -42 -127 -62 -193 -21 -66 -52 -165 -70 -220 -17 -55 -49 -154 -69 -220 -21 -66 -53 -165 -72 -220 -18 -55 -36 -115 -39 -132 l-7 -33 -13 0 -13 0 -6 35 c-4 19 -20 67 -36 107 -16 40 -34 93 -40 118 -7 25 -16 50 -20 55 -4 6 -21 53 -38 105 -33 103 -89 266 -147 425 -20 55 -41 115 -47 133 l-12 33 -20 -5 c-12 -4 -66 -11 -121 -17 -55 -5 -118 -14 -140 -19 -22 -5 -57 -10 -78 -10 l-38 0 7 -37 c4 -20 22 -70 40 -111 19 -40 34 -78 34 -85 0 -10 58 -171 80 -222 28 -64 60 -150 60 -162 0 -8 14 -46 31 -86 17 -40 36 -88 41 -107 5 -19 16 -48 24 -65 7 -16 27 -68 43 -115 17 -47 49 -138 72 -203 l41 -119 -60 -181 c-34 -100 -84 -247 -113 -327 -28 -80 -58 -167 -66 -195 -9 -27 -31 -89 -49 -138 -19 -48 -34 -92 -34 -97 0 -6 -15 -49 -33 -98 -18 -48 -47 -127 -64 -177 l-30 -90 217 6 c120 4 222 9 228 13 10 6 32 67 96 266 20 63 68 212 106 330 38 118 82 252 96 298 15 45 30 82 33 82 8 0 67 -161 109 -295 8 -27 29 -90 47 -140 17 -49 49 -144 70 -210 21 -66 55 -164 74 -219 l36 -98 194 5 c106 3 195 8 198 10 2 3 -14 58 -37 123 -22 66 -48 143 -56 173 -8 30 -18 60 -23 65 -4 6 -16 36 -26 66 -25 79 -82 242 -116 333 -15 42 -35 101 -43 130 -23 83 -104 309 -121 339 -22 39 -18 83 16 178 17 47 37 109 45 139 8 29 17 57 20 62 10 17 114 323 114 337 0 8 15 53 33 101 19 47 53 147 77 221 23 74 55 169 70 210 15 41 40 116 55 165 16 50 30 93 32 98 2 4 3 6 1 6 -2 -1 -39 -6 -83 -11z"/>
 <path d="M10 2776 c0 -9 9 -70 21 -134 12 -64 24 -148 28 -187 4 -38 22 -153 39 -255 17 -102 47 -286 67 -410 19 -124 47 -292 60 -375 14 -82 30 -184 36 -225 10 -72 46 -294 105 -650 14 -91 31 -194 36 -230 18 -135 41 -269 48 -280 l7 -11 308 -10 308 -10 7 8 c7 8 45 217 74 403 8 52 24 149 35 215 11 66 37 217 56 335 20 118 45 267 56 330 11 63 27 158 35 210 8 52 28 168 45 256 16 89 34 196 39 238 5 42 23 147 39 234 16 86 35 197 41 247 7 49 16 102 20 117 l8 26 -86 12 c-48 6 -134 18 -192 26 -58 9 -118 14 -135 12 l-30 -3 -22 -140 c-12 -77 -28 -179 -34 -228 l-12 -87 -14 -12 -13 -11 -63 7 c-307 34 -412 45 -428 46 l-16 0 -22 143 c-11 78 -27 188 -35 245 -8 57 -16 105 -18 107 -6 6 -196 33 -277 40 -41 3 -85 8 -98 11 l-23 6 0 -16z m793 -927 l147 -12 0 -11 c0 -13 -42 -292 -77 -506 -14 -85 -29 -189 -35 -230 -5 -41 -25 -172 -43 -290 -19 -118 -36 -231 -37 -250 -5 -57 -22 -40 -31 30 -4 36 -23 166 -42 290 -78 519 -145 979 -145 997 0 3 26 3 58 0 31 -4 123 -12 205 -18z"/>
 <path d="M2180 2608 l-65 -8 -74 -37 c-88 -44 -136 -90 -186 -179 l-37 -66 -19 -92 -20 -91 4 -825 3 -825 22 -71 c26 -86 79 -182 129 -235 53 -57 150 -115 240 -145 l78 -27 162 -5 163 -4 67 18 c167 44 266 113 342 239 l34 56 23 90 24 91 0 183 0 182 -127 6 c-71 4 -162 9 -204 13 l-76 7 -6 -189 c-3 -104 -10 -200 -16 -214 -5 -14 -25 -41 -43 -61 l-33 -35 -47 -13 -47 -13 -64 4 -64 4 -41 33 -42 32 -22 47 -23 47 -3 760 -3 760 11 50 c6 28 23 68 38 90 l27 39 42 12 41 12 88 -13 c49 -8 90 -14 91 -15 12 -2 74 -73 88 -100 l18 -35 5 -237 5 -236 111 -6 c61 -3 153 -7 204 -10 l94 -4 -4 242 -4 241 -23 78 -23 79 -46 79 c-25 43 -52 79 -59 79 -7 0 -19 13 -27 29 -8 15 -29 34 -46 41 -16 7 -30 16 -30 19 0 11 -75 51 -94 51 -9 0 -16 4 -16 9 0 5 -13 12 -30 16 -16 4 -30 10 -30 15 0 4 -17 10 -37 14 -192 28 -327 36 -423 24z"/>
 <path d="M10035 2594 c-105 -13 -295 -36 -322 -40 l-33 -5 0 -1276 0 -1276 61 7 c34 3 133 6 221 6 l158 0 -2 1293 -3 1292 -25 1 c-14 1 -38 0 -55 -2z"/>
 <path d="M9270 2550 c-41 -4 -142 -13 -225 -19 -82 -6 -170 -16 -195 -21 -25 -5 -69 -9 -98 -10 -28 0 -96 -6 -150 -14 -53 -8 -152 -17 -219 -21 l-123 -7 0 -1224 0 -1224 148 0 c81 0 177 3 215 7 l67 6 0 1057 0 1057 38 7 c20 3 111 11 202 16 91 5 203 14 250 20 47 5 115 12 153 16 l67 6 0 179 0 179 -27 -2 c-16 -1 -62 -5 -103 -8z"/>
 <path d="M3313 2473 c2 -16 12 -75 22 -133 10 -58 32 -186 50 -285 18 -99 36 -200 39 -225 4 -25 20 -119 36 -210 17 -91 37 -201 44 -245 43 -243 60 -337 92 -505 19 -102 34 -194 34 -205 0 -11 16 -103 35 -205 19 -102 44 -240 56 -307 12 -67 25 -126 28 -132 l7 -11 314 -2 314 -3 27 140 c15 77 44 230 64 340 20 110 51 281 70 380 18 99 50 270 70 380 20 110 50 270 67 355 17 85 34 180 38 212 4 31 21 128 38 215 17 87 38 197 46 245 9 47 19 93 22 102 l6 16 -103 0 c-57 1 -156 7 -219 14 -63 7 -118 10 -121 7 -5 -6 -33 -157 -60 -334 -6 -42 -17 -85 -24 -94 l-12 -16 -104 11 c-57 6 -172 17 -255 23 l-151 12 -27 146 c-14 80 -26 158 -26 172 0 14 -5 51 -11 82 l-12 57 -46 0 c-25 0 -91 7 -146 15 -55 8 -124 15 -154 15 l-53 0 5 -27z m934 -817 c4 -3 -6 -75 -20 -158 -47 -267 -78 -451 -88 -518 -6 -36 -26 -153 -45 -260 -18 -107 -35 -208 -36 -224 -2 -16 -8 -31 -14 -33 l-12 -4 -7 63 c-4 35 -20 140 -37 233 -16 94 -34 199 -40 235 -5 36 -25 155 -43 265 -18 110 -38 236 -45 280 -6 44 -14 93 -17 109 l-6 29 202 -5 c111 -3 205 -8 208 -12z"/>
 <path d="M7025 2389 c-115 -3 -211 -6 -212 -7 -2 -1 -3 -537 -3 -1192 l0 -1190 253 5 c138 3 395 8 570 11 l317 6 0 175 0 174 -52 -5 c-29 -3 -188 -7 -353 -8 l-300 -3 0 355 0 355 50 6 c28 4 152 10 278 14 l227 8 0 174 0 175 -67 -6 c-38 -3 -124 -8 -193 -11 -69 -3 -164 -8 -212 -11 l-88 -6 -2 493 -3 494 -210 -6z"/>
 <path d="M5110 1203 l0 -1190 53 -7 c28 -3 208 -6 398 -6 l346 0 99 21 c54 11 128 34 162 51 l64 30 62 61 c64 65 91 111 122 212 l19 60 0 745 0 745 -24 75 c-44 132 -134 238 -251 291 -14 6 -33 15 -42 20 -10 5 -27 9 -39 9 -11 0 -29 5 -41 11 -30 16 -290 35 -760 55 l-168 7 0 -1190z m781 798 c57 -25 83 -54 103 -114 l16 -48 0 -657 0 -657 -11 -40 c-15 -55 -53 -100 -103 -125 l-42 -20 -152 7 -152 6 0 840 0 840 148 -6 149 -7 44 -19z"/>
 </g>

</svg>