<svg id="volumeMax" viewBox="0 0 28 28"><path d="M13,22 L7,18 L3,18 L3,10 L7,10 L13,6 L13,22 Z M16.7437869,18.3889482 L15.3295734,16.9747347 C16.9546583,15.3496497 16.9546583,12.7148664 15.3295734,11.0897815 L16.7437869,9.6755679 C19.1499205,12.0817014 19.1499205,15.9828147 16.7437869,18.3889482 Z M19.2137399,20.2137399 L17.7995264,18.7995264 C20.4324159,16.1666368 20.4324159,11.8978793 17.7995264,9.26498977 L19.2137399,7.8507762 C22.6276781,11.2647144 22.6276781,16.7998018 19.2137399,20.2137399 Z M21.6836929,22.0385316 L20.2694793,20.6243181 C23.9101736,16.9836239 23.9101736,11.0808923 20.2694793,7.44019807 L21.6836929,6.02598451 C26.1054357,10.4477273 26.1054357,17.6167888 21.6836929,22.0385316 Z"></path></svg>