<svg id="nfplayerWindowed" viewBox="0 0 28 28"><g transform="translate(3, 6)"><polygon transform="translate(19.000000, 3.000000) scale(-1, 1) translate(-19.000000, -3.000000) " points="22 0 20 0 20 4 16 4 16 6 22 6"></polygon><polygon transform="translate(19.000000, 13.000000) scale(-1, -1) translate(-19.000000, -13.000000) " points="22 10 20 10 20 14 16 14 16 16 22 16"></polygon><polygon points="6 0 4 0 4 4 0 4 0 6 6 6"></polygon><polygon transform="translate(3.000000, 13.000000) scale(1, -1) translate(-3.000000, -13.000000) " points="6 10 4 10 4 14 0 14 0 16 6 16"></polygon></g></svg>